PathFileType  4	(X/Y/Z) C:\Users\antoi\Documents\MyRepositories\mobilecap\ResultsAnalysis
DataRate	CameraRate	NumFrames	NumMarkers	Units	OrigDataRate	OrigDataStartFrame	OrigNumFrames
100.0	100.0	6	51	mm	100.0	159	181
Frame#	Time	r_knee			r_shank_antsup			r_ankle			r_calc			r_5meta			r_toe			L_knee			L_shank_antsup			L_ankle			L_calc			L_5meta			L_toe			r_sh2			r_sh3			r_sh4			L_sh2			L_sh3			r_thigh1			r_thigh2			r_thigh3			r_thigh4			r_thigh5			L_thigh1			L_thigh2			L_thigh3			L_thigh4			r.ASIS			r.PSIS			L.ASIS			L.PSIS			C7			R_Shoulder			L_Shoulder			R_Sternum			L_Sternum			R_humerus			R_elbow_med			R_elbow_lat			R_forearm			R_wrist_radius			R_wrist_ulna			L_humerus			L_elbow_med			L_elbow_lat			L_forearm			L_wrist_radius			L_wrist_ulna			R_HJC			L_HJC			R_HJC_reg			L_HJC_reg			
		X1	Y1	Z1	X2	Y2	Z2	X3	Y3	Z3	X4	Y4	Z4	X5	Y5	Z5	X6	Y6	Z6	X7	Y7	Z7	X8	Y8	Z8	X9	Y9	Z9	X10	Y10	Z10	X11	Y11	Z11	X12	Y12	Z12	X13	Y13	Z13	X14	Y14	Z14	X15	Y15	Z15	X16	Y16	Z16	X17	Y17	Z17	X18	Y18	Z18	X19	Y19	Z19	X20	Y20	Z20	X21	Y21	Z21	X22	Y22	Z22	X23	Y23	Z23	X24	Y24	Z24	X25	Y25	Z25	X26	Y26	Z26	X27	Y27	Z27	X28	Y28	Z28	X29	Y29	Z29	X30	Y30	Z30	X31	Y31	Z31	X32	Y32	Z32	X33	Y33	Z33	X34	Y34	Z34	X35	Y35	Z35	X36	Y36	Z36	X37	Y37	Z37	X38	Y38	Z38	X39	Y39	Z39	X40	Y40	Z40	X41	Y41	Z41	X42	Y42	Z42	X43	Y43	Z43	X44	Y44	Z44	X45	Y45	Z45	X46	Y46	Z46	X47	Y47	Z47	X48	Y48	Z48	X49	Y49	Z49	X50	Y50	Z50	X51	Y51	Z51	

159	1.58000000	1367.93768	452.16972	-103.16271	1429.39138	355.74230	-131.45338	1428.32622	80.05334	-185.68276	1385.06172	53.77315	-241.70183	1550.70174	41.72772	-167.78801	1584.07296	71.07714	-208.90001	1100.19684	463.48152	-361.01721	1090.12718	351.14692	-321.58320	868.07313	141.53192	-292.20611	817.14653	140.05165	-242.38484	947.17538	32.17624	-274.66910	992.63561	43.21417	-229.09235	1446.34505	247.78665	-159.53675	1375.21566	331.71136	-81.77501	1376.29619	226.11711	-119.70424	1045.15038	398.65743	-379.58272	970.97671	302.49736	-375.83541	1368.52058	764.46879	-85.04824	1402.42698	658.84862	-95.50517	1371.60650	619.60124	-49.38337	1276.99273	727.91762	-33.88077	1314.00655	619.07714	-41.04964	1263.93399	719.87511	-395.89681	1234.97268	586.90141	-387.69272	1157.59275	748.27447	-418.24270	1123.82546	613.31791	-394.80268	1361.13399	902.64977	-116.19095	1176.59755	961.92964	-165.73005	1346.13230	887.61373	-362.65235	1170.03913	962.98442	-283.49748	1244.39566	1409.16444	-236.61271	1298.97004	1364.61301	-84.47753	1296.87006	1367.80982	-393.89280	1358.73770	1333.11642	-219.15482	1358.15080	1330.96156	-263.62642	1296.50656	1239.75381	-11.87137	1182.32010	1060.59218	-43.34032	1211.09107	1067.37311	25.16061	1251.06185	946.67297	49.59836	1274.74475	846.42562	56.38218	1239.76010	841.30534	72.37667	1303.37097	1217.56257	-453.15374	1216.82609	1034.53329	-402.37220	1233.20240	1043.84797	-474.17529	1273.16203	954.72511	-499.56385	1291.87829	823.79185	-494.92961	1268.32496	821.71771	-513.18928	1262.26415	840.22184	-129.80098	1250.64032	828.76229	-318.42682	1278.93852	830.68102	-146.75282	1269.85873	832.14260	-309.75651	
160	1.59000000	1374.29106	453.64763	-103.50297	1434.03009	355.99801	-132.38282	1429.36857	80.54208	-185.80329	1385.57586	54.19948	-241.92038	1551.37868	40.72026	-168.01463	1585.15974	68.85828	-209.59152	1113.96501	461.34903	-362.40392	1101.36716	349.42081	-322.54795	874.11073	145.61370	-293.90495	823.03853	146.56383	-244.44156	948.69867	32.81978	-275.07916	994.22640	43.04403	-229.30386	1450.23877	248.15912	-160.22792	1380.71930	332.90500	-81.96482	1380.17938	227.11226	-119.58921	1057.92690	397.83036	-381.12860	981.18945	303.29630	-377.18858	1378.59652	766.26545	-85.39165	1411.48143	660.25952	-95.59603	1379.93921	621.37814	-49.89103	1286.51791	730.55828	-34.62030	1322.31973	621.35982	-41.78954	1275.86312	718.74970	-395.72681	1248.16337	585.49264	-387.64066	1169.69056	746.03966	-419.34424	1136.89604	610.88824	-395.90953	1371.17299	905.25362	-116.71410	1186.55175	963.54353	-168.81352	1357.42213	887.15866	-362.82165	1180.99958	963.12708	-286.73391	1255.08938	1410.09601	-233.48271	1307.98353	1363.68734	-81.61279	1309.58257	1371.07460	-390.80345	1369.23518	1333.82218	-215.81681	1369.15502	1332.35398	-260.26979	1305.24393	1238.21903	-10.39130	1192.19613	1059.01090	-44.83359	1219.89982	1065.40497	24.15843	1259.69903	944.65291	48.43116	1283.38206	844.35834	54.92636	1248.07723	839.22900	70.38789	1315.16139	1221.26550	-451.68286	1226.34751	1038.98517	-401.91358	1242.46519	1048.49181	-473.99594	1281.72976	959.06359	-499.74299	1298.86420	827.72686	-495.92772	1275.40381	826.40390	-514.32944	1272.17402	842.55061	-130.39665	1262.07171	828.57570	-318.95330	1289.00854	832.76713	-147.02651	1281.33462	832.19448	-309.96917	
161	1.60000000	1379.89809	454.89496	-103.87384	1438.30620	356.17166	-133.12148	1430.30182	81.05207	-185.99007	1386.03682	54.46467	-242.03737	1551.98260	39.90498	-168.33508	1586.08036	66.90984	-210.37737	1128.30386	459.14480	-364.08974	1113.17325	347.61275	-323.83448	880.69648	150.12171	-295.66839	829.62063	153.65175	-246.60377	950.40318	33.80550	-275.63195	996.00785	43.12211	-229.64957	1453.70804	248.40133	-160.80064	1385.54684	333.95978	-82.27651	1383.50099	228.02508	-119.72008	1071.29986	396.88774	-382.96172	992.06702	304.16305	-378.83125	1388.74022	767.56102	-85.64005	1420.17770	661.04235	-95.46616	1387.61257	622.70811	-50.29242	1295.84927	733.09950	-35.43916	1329.95750	623.40298	-42.58797	1287.89033	717.86473	-395.65094	1261.66279	584.27985	-387.88977	1181.73434	743.90546	-420.35195	1150.23578	608.50157	-397.10743	1381.33193	907.80940	-117.23883	1196.68360	965.11219	-171.68705	1368.66184	887.01278	-362.95408	1191.92766	963.38878	-289.72895	1265.59812	1411.02403	-230.37697	1316.77582	1362.81532	-78.84008	1322.16396	1374.37641	-387.68078	1379.54232	1334.58864	-212.50411	1379.98489	1333.80238	-256.92726	1313.74762	1236.80420	-8.91456	1201.93921	1057.52291	-46.33235	1228.50507	1063.54432	23.12012	1268.24886	942.76059	47.22026	1292.02202	842.43301	53.38435	1256.39908	837.27257	68.32039	1326.86032	1225.09352	-450.26194	1235.79911	1043.56142	-401.58433	1251.69652	1053.24465	-473.91174	1290.34843	963.54640	-500.01439	1306.19281	831.88322	-496.98332	1282.75263	831.29568	-515.53598	1282.22697	844.83172	-131.00772	1273.50313	828.60252	-319.47109	1299.28587	834.85792	-147.25733	1292.72465	832.48385	-310.08220	
162	1.61000000	1384.80575	455.90155	-104.17537	1442.25054	356.22142	-133.50178	1431.16952	81.52177	-186.19175	1386.47365	54.59852	-242.06192	1552.52074	39.13227	-168.62785	1586.87965	65.13179	-211.07900	1143.16094	456.92568	-366.12799	1125.53299	345.76271	-325.46826	887.85652	155.07879	-297.47175	836.98539	161.31774	-248.85076	952.29358	35.19477	-276.32708	998.00598	43.48539	-230.13198	1456.73220	248.44947	-161.12157	1389.61792	334.80056	-82.59812	1386.24298	228.80060	-120.01108	1085.23949	395.86429	-385.12969	1003.55019	305.10548	-380.72855	1398.82287	768.38874	-85.79367	1428.44520	661.27224	-95.14964	1394.67996	623.64075	-50.49606	1304.93026	735.52958	-36.27961	1336.97368	625.23933	-43.33528	1299.95269	717.23184	-395.75868	1275.39606	583.28992	-388.55099	1193.67575	741.94345	-421.24030	1163.78406	606.20362	-398.42287	1391.62256	910.20969	-117.83780	1206.97756	966.59681	-174.26350	1379.81043	887.15806	-363.15479	1202.77494	963.75078	-292.39449	1275.90226	1411.91388	-227.32451	1325.38035	1361.95961	-76.16355	1334.55915	1377.65408	-384.54475	1389.65507	1335.38357	-209.24698	1390.62207	1335.26388	-253.63518	1322.04003	1235.45446	-7.45404	1211.49930	1056.11257	-47.80904	1236.90376	1061.75893	22.06453	1276.70096	940.96395	45.97632	1300.65278	840.62304	51.76202	1264.73708	835.38955	66.20230	1338.42660	1228.97629	-448.89448	1245.14965	1048.18225	-401.43536	1260.95174	1058.02855	-473.92653	1299.04647	968.09864	-500.38926	1313.89209	836.16632	-498.11755	1290.40994	836.27749	-516.80423	1292.44384	846.97220	-131.66620	1284.86173	828.83149	-320.02274	1309.75634	836.89383	-147.51109	1303.96974	832.97693	-310.18058	
163	1.62000000	1389.12093	456.70853	-104.30954	1445.91441	356.15273	-133.49164	1431.98267	81.91787	-186.35816	1386.89424	54.64789	-242.02327	1553.00051	38.34161	-168.81884	1587.58466	63.48972	-211.59603	1158.47933	454.74285	-368.54645	1138.44099	343.90848	-327.45643	895.63526	160.46636	-299.31158	845.25250	169.53374	-251.18728	954.38146	37.03930	-277.15466	1000.25919	44.16517	-230.76647	1459.36133	248.31717	-161.15615	1393.02338	335.42927	-82.83304	1388.50016	229.43692	-120.34325	1099.69685	394.79704	-387.63850	1015.59188	306.12363	-382.84273	1408.72413	768.86928	-85.85825	1436.29641	661.12747	-94.70425	1401.28500	624.29240	-50.46379	1313.73864	737.85173	-37.08980	1343.53181	626.94138	-43.95556	1311.99618	716.84166	-396.11520	1289.30192	582.52979	-389.70466	1205.50717	740.19807	-421.99829	1177.48729	604.02094	-399.87397	1402.04087	912.38904	-118.56710	1217.38375	967.98233	-176.49864	1390.82562	887.55618	-363.51413	1213.50126	964.18396	-294.68179	1285.99764	1412.73905	-224.34569	1333.83686	1361.08853	-73.57890	1346.71906	1380.85447	-381.41185	1399.58118	1336.17425	-206.06809	1401.05532	1336.69613	-250.42129	1330.14961	1234.12061	-6.01927	1220.83529	1054.76728	-49.24144	1245.10752	1060.01744	21.00723	1285.05085	939.22909	44.70478	1309.25716	838.89205	50.06102	1273.10993	833.53786	64.04930	1349.82831	1232.84228	-447.57424	1254.36684	1052.77016	-401.51838	1270.26484	1062.77483	-474.06080	1307.85680	972.64903	-500.87836	1321.97574	840.48967	-499.33852	1298.41309	841.22783	-518.12580	1302.82364	848.91524	-132.39271	1296.08247	829.23566	-320.63930	1320.37065	838.84418	-147.84745	1315.03400	833.62149	-310.34763	
164	1.63000000	1393.01570	457.39256	-104.22510	1449.36235	356.01272	-133.17708	1432.72630	82.23211	-186.44827	1387.29263	54.66247	-241.95310	1553.43137	37.54898	-168.88712	1588.20661	61.99802	-211.90859	1174.19992	452.62879	-371.33856	1151.89693	342.08149	-329.78660	904.09876	166.21419	-301.21553	854.55535	178.23281	-253.64803	956.69430	39.37619	-278.09924	1002.82414	45.18379	-231.58771	1461.70022	248.07981	-160.95628	1395.98276	335.91271	-82.91996	1390.44659	229.97613	-120.59520	1114.60480	393.71269	-390.44351	1028.17213	307.20804	-385.14768	1418.36587	769.16635	-85.87412	1443.82799	660.82788	-94.21104	1407.62488	624.81065	-50.23909	1322.30219	740.07499	-37.83744	1349.86730	628.59275	-44.42918	1323.98693	716.66671	-396.75073	1303.33499	581.98594	-391.39181	1217.24248	738.67159	-422.63574	1191.30177	601.95485	-401.47036	1412.55598	914.31801	-119.45772	1227.83024	969.27215	-178.39487	1401.67039	888.14956	-364.08955	1224.07893	964.64953	-296.58967	1295.89590	1413.48094	-221.44502	1342.18368	1360.17564	-71.07498	1358.60111	1383.93528	-378.29320	1409.33766	1336.92984	-202.97865	1411.28387	1338.06136	-247.29897	1338.10576	1232.76280	-4.61431	1229.92679	1053.46938	-50.61300	1253.13856	1058.28989	19.96026	1293.29620	937.51786	43.40698	1317.81559	837.19755	48.28271	1281.53182	831.68297	61.86143	1361.04708	1236.62756	-446.28487	1263.42518	1057.25518	-401.87623	1279.64706	1067.42644	-474.34666	1316.81526	977.13521	-501.48819	1330.44526	844.78498	-500.63519	1306.79557	846.04290	-519.49750	1313.33452	850.63701	-133.19581	1307.11344	829.77278	-321.33769	1331.04776	840.70489	-148.30800	1325.89752	834.35347	-310.64553	
